<?xml version="1.0" standalone="no"?><!DOCTYPE svg PUBLIC "-//W3C//DTD SVG 1.1//EN" "http://www.w3.org/Graphics/SVG/1.1/DTD/svg11.dtd"><svg t="1751270636365" class="icon" viewBox="0 0 1024 1024" version="1.1" xmlns="http://www.w3.org/2000/svg" p-id="9959" xmlns:xlink="http://www.w3.org/1999/xlink" width="200" height="200"><path d="M785.08032 140.544v126.03392c0 13.27616 11.05408 24.33536 24.30464 24.33536h152.56064c22.10816 0 33.16736-28.75392 15.46752-44.22656l-152.56064-126.0288c-15.46752-13.28128-39.77216-2.2272-39.77216 19.88608zM161.59232 231.21408c0-90.67008 75.17184-165.8368 165.8112-165.8368h338.28352c-19.9168-24.30464-48.64-39.77728-81.80736-39.77728H141.6704C84.1984 25.6 37.74976 72.01792 37.74976 129.4848v530.62144c0 57.50272 46.44864 103.92064 103.92064 103.92064h17.69472V231.21408h2.2272z m802.57024 92.86656l-150.36416-2.2272c-35.35872 0-64.10752-28.7488-64.10752-66.33472l2.22208-126.03392c0-13.24544-11.05408-24.30464-24.33536-24.30464h-400.1792c-68.5312 0-126.03392 55.28064-126.03392 126.0288v641.15712c0 68.56192 55.28064 126.0288 126.03392 126.0288h532.84352c68.5312 0 126.0032-55.28064 126.0032-126.0288V346.15808c0.00512-11.05408-11.01824-22.07744-22.08256-22.07744z m-172.47232 484.1728H387.09248a39.64416 39.64416 0 0 1-39.808-39.77728 39.6288 39.6288 0 0 1 39.808-39.808h406.81472a39.6288 39.6288 0 0 1 39.808 39.808c0.00512 22.08256-19.9168 39.77728-42.02496 39.77728z m0-243.2H387.09248a39.64928 39.64928 0 0 1-39.808-39.80288 39.64416 39.64416 0 0 1 39.808-39.7824h406.81472a39.64416 39.64416 0 0 1 39.808 39.7824c0.00512 19.9168-19.9168 39.80288-42.02496 39.80288z" fill="#333333" p-id="9960"></path></svg>